# xmcd
#
# Track frame offsets: 
#        150
#        11891
#        25268
#        44624
#        66630
#        84231
#        97319
#        107418
#        124905
#        137462
#        154941
#        180403
#        194284
#        208460
#        224907
#        235983
#
# Disc length: 3375 seconds
#
# Revision: 0
# Processed by: cddbd v1.5.2PL0 Copyright (c) Steve Scherf et al.
# Submitted via: ExactAudioCopyFreeDBPlugin 1.0
#
DISCID=f50d2d10
DTITLE=The Broken Circle Breakdown Bluegrass Band - Unbroken! Live In 
DTITLE=Concert
DYEAR=2015
DGENRE=Country
TTITLE0=Black Mountain Rag (Live At Stadsschouwburg Brugge)
TTITLE1=Country In My Genes (Live At Stadsschouwburg Brugge) Start
TTITLE2=The Boy Who Wouldn't Hoe Corn (Live at Arenbergschouwburg Antw
TTITLE2=erpen) Start
TTITLE3=Wayfaring Stranger (Live At CC Aalst)
TTITLE4=Sin City (Live At CC Aalst)
TTITLE5=Sandmountain (Live At Stadsschouwburg Brugge)
TTITLE6=Tumbling Tumbleweeds (Live At Arenbergschouwburg Antwerpen)
TTITLE7=Don't Think Twice It's All Right (Live At Arenbergschouwburg A
TTITLE7=ntwerpen) Start
TTITLE8=Do I Ever Cross Your Mind (Live At CC Beerse) Start
TTITLE9=Reuben's Train (Live At CC St Truiden)
TTITLE10=The Way It Goes (Live At CC Westerlo)
TTITLE11=The One I Love Is Gone (Live At Stadsschouwburg Brugge)
TTITLE12=Cowboyman (Live At CC Westerlo)
TTITLE13=Cherokee Shuffle (Live At Arenbergschouwburg Antwerpen)
TTITLE14=Ain't Nobody Gonna Miss Me When I'm Gone (Live At CC Beerse)
TTITLE15=If I Needed You (Live At Arenbergschouwburg Antwerpen)
EXTD=
EXTT0=
EXTT1=
EXTT2=
EXTT3=
EXTT4=
EXTT5=
EXTT6=
EXTT7=
EXTT8=
EXTT9=
EXTT10=
EXTT11=
EXTT12=
EXTT13=
EXTT14=
EXTT15=
PLAYORDER=
